<svg id="visual" viewBox="0 0 900 200" width="900" height="200" xmlns="http://www.w3.org/2000/svg" xmlns:xlink="http://www.w3.org/1999/xlink" version="1.1"><path d="M0 23L9.3 25C18.7 27 37.3 31 56.2 32C75 33 94 31 112.8 27C131.7 23 150.3 17 169 14C187.7 11 206.3 11 225 13.3C243.7 15.7 262.3 20.3 281.2 22.7C300 25 319 25 337.8 22.7C356.7 20.3 375.3 15.7 394 12.7C412.7 9.7 431.3 8.3 450 9.7C468.7 11 487.3 15 506.2 20.3C525 25.7 544 32.3 562.8 33C581.7 33.7 600.3 28.3 619 28.3C637.7 28.3 656.3 33.7 675 33.3C693.7 33 712.3 27 731.2 23.7C750 20.3 769 19.7 787.8 17.7C806.7 15.7 825.3 12.3 844 11C862.7 9.7 881.3 10.3 890.7 10.7L900 11L900 0L890.7 0C881.3 0 862.7 0 844 0C825.3 0 806.7 0 787.8 0C769 0 750 0 731.2 0C712.3 0 693.7 0 675 0C656.3 0 637.7 0 619 0C600.3 0 581.7 0 562.8 0C544 0 525 0 506.2 0C487.3 0 468.7 0 450 0C431.3 0 412.7 0 394 0C375.3 0 356.7 0 337.8 0C319 0 300 0 281.2 0C262.3 0 243.7 0 225 0C206.3 0 187.7 0 169 0C150.3 0 131.7 0 112.8 0C94 0 75 0 56.2 0C37.3 0 18.7 0 9.3 0L0 0Z" fill="#464652"></path><path d="M0 49L9.3 48.3C18.7 47.7 37.3 46.3 56.2 44C75 41.7 94 38.3 112.8 33.3C131.7 28.3 150.3 21.7 169 18.7C187.7 15.7 206.3 16.3 225 21C243.7 25.7 262.3 34.3 281.2 37.3C300 40.3 319 37.7 337.8 35.3C356.7 33 375.3 31 394 29C412.7 27 431.3 25 450 28C468.7 31 487.3 39 506.2 44.7C525 50.3 544 53.7 562.8 55C581.7 56.3 600.3 55.7 619 56C637.7 56.3 656.3 57.7 675 56.3C693.7 55 712.3 51 731.2 49.7C750 48.3 769 49.7 787.8 45C806.7 40.3 825.3 29.7 844 23.7C862.7 17.7 881.3 16.3 890.7 15.7L900 15L900 9L890.7 8.7C881.3 8.3 862.7 7.7 844 9C825.3 10.3 806.7 13.7 787.8 15.7C769 17.7 750 18.3 731.2 21.7C712.3 25 693.7 31 675 31.3C656.3 31.7 637.7 26.3 619 26.3C600.3 26.3 581.7 31.7 562.8 31C544 30.3 525 23.7 506.2 18.3C487.3 13 468.7 9 450 7.7C431.3 6.3 412.7 7.7 394 10.7C375.3 13.7 356.7 18.3 337.8 20.7C319 23 300 23 281.2 20.7C262.3 18.3 243.7 13.7 225 11.3C206.3 9 187.7 9 169 12C150.3 15 131.7 21 112.8 25C94 29 75 31 56.2 30C37.3 29 18.7 25 9.3 23L0 21Z" fill="#33333d"></path><path d="M0 57L9.3 57.3C18.7 57.7 37.3 58.3 56.2 56.3C75 54.3 94 49.7 112.8 45.3C131.7 41 150.3 37 169 34C187.7 31 206.3 29 225 31C243.7 33 262.3 39 281.2 43.3C300 47.7 319 50.3 337.8 49.3C356.7 48.3 375.3 43.7 394 40.7C412.7 37.7 431.3 36.3 450 38.7C468.7 41 487.3 47 506.2 54C525 61 544 69 562.8 69.7C581.7 70.3 600.3 63.7 619 63C637.7 62.3 656.3 67.7 675 69C693.7 70.3 712.3 67.7 731.2 64.3C750 61 769 57 787.8 52.3C806.7 47.7 825.3 42.3 844 37.7C862.7 33 881.3 29 890.7 27L900 25L900 13L890.7 13.7C881.3 14.3 862.7 15.7 844 21.7C825.3 27.7 806.7 38.3 787.8 43C769 47.7 750 46.3 731.2 47.7C712.3 49 693.7 53 675 54.3C656.3 55.7 637.7 54.3 619 54C600.3 53.7 581.7 54.3 562.8 53C544 51.7 525 48.3 506.2 42.7C487.3 37 468.7 29 450 26C431.3 23 412.7 25 394 27C375.3 29 356.7 31 337.8 33.3C319 35.7 300 38.3 281.2 35.3C262.3 32.3 243.7 23.7 225 19C206.3 14.3 187.7 13.7 169 16.7C150.3 19.7 131.7 26.3 112.8 31.3C94 36.3 75 39.7 56.2 42C37.3 44.3 18.7 45.7 9.3 46.3L0 47Z" fill="#21222a"></path><path d="M0 115L9.3 110.7C18.7 106.3 37.3 97.7 56.2 88C75 78.3 94 67.7 112.8 65.3C131.7 63 150.3 69 169 81.7C187.7 94.3 206.3 113.7 225 119.7C243.7 125.7 262.3 118.3 281.2 117.3C300 116.3 319 121.7 337.8 113.3C356.7 105 375.3 83 394 76.7C412.7 70.3 431.3 79.7 450 82C468.7 84.3 487.3 79.7 506.2 81.7C525 83.7 544 92.3 562.8 97.3C581.7 102.3 600.3 103.7 619 109.3C637.7 115 656.3 125 675 122.7C693.7 120.3 712.3 105.7 731.2 104.7C750 103.7 769 116.3 787.8 112C806.7 107.7 825.3 86.3 844 74.7C862.7 63 881.3 61 890.7 60L900 59L900 23L890.7 25C881.3 27 862.7 31 844 35.7C825.3 40.3 806.7 45.7 787.8 50.3C769 55 750 59 731.2 62.3C712.3 65.7 693.7 68.3 675 67C656.3 65.7 637.7 60.3 619 61C600.3 61.7 581.7 68.3 562.8 67.7C544 67 525 59 506.2 52C487.3 45 468.7 39 450 36.7C431.3 34.3 412.7 35.7 394 38.7C375.3 41.7 356.7 46.3 337.8 47.3C319 48.3 300 45.7 281.2 41.3C262.3 37 243.7 31 225 29C206.3 27 187.7 29 169 32C150.3 35 131.7 39 112.8 43.3C94 47.7 75 52.3 56.2 54.3C37.3 56.3 18.7 55.7 9.3 55.3L0 55Z" fill="#14141b"></path><path d="M0 145L9.3 140.3C18.7 135.7 37.3 126.3 56.2 113C75 99.7 94 82.3 112.8 79.3C131.7 76.3 150.3 87.7 169 101.7C187.7 115.7 206.3 132.3 225 134.7C243.7 137 262.3 125 281.2 121.7C300 118.3 319 123.7 337.8 118.7C356.7 113.7 375.3 98.3 394 94C412.7 89.7 431.3 96.3 450 95.7C468.7 95 487.3 87 506.2 87C525 87 544 95 562.8 102C581.7 109 600.3 115 619 123C637.7 131 656.3 141 675 140.7C693.7 140.3 712.3 129.7 731.2 129C750 128.3 769 137.7 787.8 130.7C806.7 123.7 825.3 100.3 844 87.3C862.7 74.3 881.3 71.7 890.7 70.3L900 69L900 57L890.7 58C881.3 59 862.7 61 844 72.7C825.3 84.3 806.7 105.7 787.8 110C769 114.3 750 101.7 731.2 102.7C712.3 103.7 693.7 118.3 675 120.7C656.3 123 637.7 113 619 107.3C600.3 101.7 581.7 100.3 562.8 95.3C544 90.3 525 81.7 506.2 79.7C487.3 77.7 468.7 82.3 450 80C431.3 77.7 412.7 68.3 394 74.7C375.3 81 356.7 103 337.8 111.3C319 119.7 300 114.3 281.2 115.3C262.3 116.3 243.7 123.7 225 117.7C206.3 111.7 187.7 92.3 169 79.7C150.3 67 131.7 61 112.8 63.3C94 65.7 75 76.3 56.2 86C37.3 95.7 18.7 104.3 9.3 108.7L0 113Z" fill="#14141b"></path><path d="M0 161L9.3 160.3C18.7 159.7 37.3 158.3 56.2 153.7C75 149 94 141 112.8 144.3C131.7 147.7 150.3 162.3 169 168.3C187.7 174.3 206.3 171.7 225 165C243.7 158.3 262.3 147.7 281.2 147.3C300 147 319 157 337.8 156.3C356.7 155.7 375.3 144.3 394 141.7C412.7 139 431.3 145 450 147.3C468.7 149.7 487.3 148.3 506.2 153.7C525 159 544 171 562.8 171C581.7 171 600.3 159 619 159.7C637.7 160.3 656.3 173.7 675 175.3C693.7 177 712.3 167 731.2 163.3C750 159.7 769 162.3 787.8 160.7C806.7 159 825.3 153 844 151.7C862.7 150.3 881.3 153.7 890.7 155.3L900 157L900 67L890.7 68.3C881.3 69.7 862.7 72.3 844 85.3C825.3 98.3 806.7 121.7 787.8 128.7C769 135.7 750 126.3 731.2 127C712.3 127.7 693.7 138.3 675 138.7C656.3 139 637.7 129 619 121C600.3 113 581.7 107 562.8 100C544 93 525 85 506.2 85C487.3 85 468.7 93 450 93.7C431.3 94.3 412.7 87.7 394 92C375.3 96.3 356.7 111.7 337.8 116.7C319 121.7 300 116.3 281.2 119.7C262.3 123 243.7 135 225 132.7C206.3 130.3 187.7 113.7 169 99.7C150.3 85.7 131.7 74.3 112.8 77.3C94 80.3 75 97.7 56.2 111C37.3 124.3 18.7 133.7 9.3 138.3L0 143Z" fill="#21222a"></path><path d="M0 173L9.3 170.7C18.7 168.3 37.3 163.7 56.2 159.7C75 155.7 94 152.3 112.8 156C131.7 159.7 150.3 170.3 169 176.3C187.7 182.3 206.3 183.7 225 178C243.7 172.3 262.3 159.7 281.2 159.7C300 159.7 319 172.3 337.8 173.7C356.7 175 375.3 165 394 161.7C412.7 158.3 431.3 161.7 450 162C468.7 162.3 487.3 159.7 506.2 163C525 166.3 544 175.7 562.8 177.3C581.7 179 600.3 173 619 173.7C637.7 174.3 656.3 181.7 675 181C693.7 180.3 712.3 171.7 731.2 170C750 168.3 769 173.7 787.8 171.7C806.7 169.7 825.3 160.3 844 160C862.7 159.7 881.3 168.3 890.7 172.7L900 177L900 155L890.7 153.3C881.3 151.7 862.7 148.3 844 149.7C825.3 151 806.7 157 787.8 158.7C769 160.3 750 157.7 731.2 161.3C712.3 165 693.7 175 675 173.3C656.3 171.7 637.7 158.3 619 157.7C600.3 157 581.7 169 562.8 169C544 169 525 157 506.2 151.7C487.3 146.3 468.7 147.7 450 145.3C431.3 143 412.7 137 394 139.7C375.3 142.3 356.7 153.7 337.8 154.3C319 155 300 145 281.2 145.3C262.3 145.7 243.7 156.3 225 163C206.3 169.7 187.7 172.3 169 166.3C150.3 160.3 131.7 145.7 112.8 142.3C94 139 75 147 56.2 151.7C37.3 156.3 18.7 157.7 9.3 158.3L0 159Z" fill="#33333d"></path><path d="M0 201L9.3 201C18.7 201 37.3 201 56.2 201C75 201 94 201 112.8 201C131.7 201 150.3 201 169 201C187.7 201 206.3 201 225 201C243.7 201 262.3 201 281.2 201C300 201 319 201 337.8 201C356.7 201 375.3 201 394 201C412.7 201 431.3 201 450 201C468.7 201 487.3 201 506.2 201C525 201 544 201 562.8 201C581.7 201 600.3 201 619 201C637.7 201 656.3 201 675 201C693.7 201 712.3 201 731.2 201C750 201 769 201 787.8 201C806.7 201 825.3 201 844 201C862.7 201 881.3 201 890.7 201L900 201L900 175L890.7 170.7C881.3 166.3 862.7 157.7 844 158C825.3 158.3 806.7 167.7 787.8 169.7C769 171.7 750 166.3 731.2 168C712.3 169.7 693.7 178.3 675 179C656.3 179.7 637.7 172.3 619 171.7C600.3 171 581.7 177 562.8 175.3C544 173.7 525 164.3 506.2 161C487.3 157.7 468.7 160.3 450 160C431.3 159.7 412.7 156.3 394 159.7C375.3 163 356.7 173 337.8 171.7C319 170.3 300 157.7 281.2 157.7C262.3 157.7 243.7 170.3 225 176C206.3 181.7 187.7 180.3 169 174.3C150.3 168.3 131.7 157.7 112.8 154C94 150.3 75 153.7 56.2 157.7C37.3 161.7 18.7 166.3 9.3 168.7L0 171Z" fill="#464652"></path></svg>