<svg id="visual" viewBox="0 0 960 200" width="960" height="200" xmlns="http://www.w3.org/2000/svg" xmlns:xlink="http://www.w3.org/1999/xlink" version="1.1"><path d="M0 17L7 17.7C14 18.3 28 19.7 41.8 18C55.7 16.3 69.3 11.7 83.2 11C97 10.3 111 13.7 125 13.7C139 13.7 153 10.3 167 9.3C181 8.3 195 9.7 208.8 12C222.7 14.3 236.3 17.7 250.2 19.7C264 21.7 278 22.3 292 21.3C306 20.3 320 17.7 334 16C348 14.3 362 13.7 375.8 14C389.7 14.3 403.3 15.7 417.2 16.3C431 17 445 17 459 17.7C473 18.3 487 19.7 501 20.7C515 21.7 529 22.3 542.8 21.7C556.7 21 570.3 19 584.2 17C598 15 612 13 626 13C640 13 654 15 668 15.7C682 16.3 696 15.7 709.8 14.7C723.7 13.7 737.3 12.3 751.2 12.7C765 13 779 15 793 16C807 17 821 17 835 15.3C849 13.7 863 10.3 876.8 8.7C890.7 7 904.3 7 918.2 8.3C932 9.7 946 12.3 953 13.7L960 15L960 0L953 0C946 0 932 0 918.2 0C904.3 0 890.7 0 876.8 0C863 0 849 0 835 0C821 0 807 0 793 0C779 0 765 0 751.2 0C737.3 0 723.7 0 709.8 0C696 0 682 0 668 0C654 0 640 0 626 0C612 0 598 0 584.2 0C570.3 0 556.7 0 542.8 0C529 0 515 0 501 0C487 0 473 0 459 0C445 0 431 0 417.2 0C403.3 0 389.7 0 375.8 0C362 0 348 0 334 0C320 0 306 0 292 0C278 0 264 0 250.2 0C236.3 0 222.7 0 208.8 0C195 0 181 0 167 0C153 0 139 0 125 0C111 0 97 0 83.2 0C69.3 0 55.7 0 41.8 0C28 0 14 0 7 0L0 0Z" fill="#f88784"></path><path d="M0 29L7 28.7C14 28.3 28 27.7 41.8 26.3C55.7 25 69.3 23 83.2 24.3C97 25.7 111 30.3 125 30.7C139 31 153 27 167 26.3C181 25.7 195 28.3 208.8 28.7C222.7 29 236.3 27 250.2 28.7C264 30.3 278 35.7 292 37C306 38.3 320 35.7 334 33C348 30.3 362 27.7 375.8 26.3C389.7 25 403.3 25 417.2 26.7C431 28.3 445 31.7 459 32C473 32.3 487 29.7 501 29C515 28.3 529 29.7 542.8 30.3C556.7 31 570.3 31 584.2 28.7C598 26.3 612 21.7 626 21.7C640 21.7 654 26.3 668 28.7C682 31 696 31 709.8 30.3C723.7 29.7 737.3 28.3 751.2 28C765 27.7 779 28.3 793 28.3C807 28.3 821 27.7 835 25C849 22.3 863 17.7 876.8 15.3C890.7 13 904.3 13 918.2 15.7C932 18.3 946 23.7 953 26.3L960 29L960 13L953 11.7C946 10.3 932 7.7 918.2 6.3C904.3 5 890.7 5 876.8 6.7C863 8.3 849 11.7 835 13.3C821 15 807 15 793 14C779 13 765 11 751.2 10.7C737.3 10.3 723.7 11.7 709.8 12.7C696 13.7 682 14.3 668 13.7C654 13 640 11 626 11C612 11 598 13 584.2 15C570.3 17 556.7 19 542.8 19.7C529 20.3 515 19.7 501 18.7C487 17.7 473 16.3 459 15.7C445 15 431 15 417.2 14.3C403.3 13.7 389.7 12.3 375.8 12C362 11.7 348 12.3 334 14C320 15.7 306 18.3 292 19.3C278 20.3 264 19.7 250.2 17.7C236.3 15.7 222.7 12.3 208.8 10C195 7.7 181 6.3 167 7.3C153 8.3 139 11.7 125 11.7C111 11.7 97 8.3 83.2 9C69.3 9.7 55.7 14.3 41.8 16C28 17.7 14 16.3 7 15.7L0 15Z" fill="#f47774"></path><path d="M0 55L7 54.7C14 54.3 28 53.7 41.8 60.7C55.7 67.7 69.3 82.3 83.2 89.3C97 96.3 111 95.7 125 90.7C139 85.7 153 76.3 167 72C181 67.7 195 68.3 208.8 64C222.7 59.7 236.3 50.3 250.2 51C264 51.7 278 62.3 292 66.7C306 71 320 69 334 70.7C348 72.3 362 77.7 375.8 82.3C389.7 87 403.3 91 417.2 94.7C431 98.3 445 101.7 459 93.7C473 85.7 487 66.3 501 60.7C515 55 529 63 542.8 74.3C556.7 85.7 570.3 100.3 584.2 97.3C598 94.3 612 73.7 626 67.7C640 61.7 654 70.3 668 72.3C682 74.3 696 69.7 709.8 67C723.7 64.3 737.3 63.7 751.2 68C765 72.3 779 81.7 793 83C807 84.3 821 77.7 835 71.3C849 65 863 59 876.8 60C890.7 61 904.3 69 918.2 71.7C932 74.3 946 71.7 953 70.3L960 69L960 27L953 24.3C946 21.7 932 16.3 918.2 13.7C904.3 11 890.7 11 876.8 13.3C863 15.7 849 20.3 835 23C821 25.7 807 26.3 793 26.3C779 26.3 765 25.7 751.2 26C737.3 26.3 723.7 27.7 709.8 28.3C696 29 682 29 668 26.7C654 24.3 640 19.7 626 19.7C612 19.7 598 24.3 584.2 26.7C570.3 29 556.7 29 542.8 28.3C529 27.7 515 26.3 501 27C487 27.7 473 30.3 459 30C445 29.7 431 26.3 417.2 24.7C403.3 23 389.7 23 375.8 24.3C362 25.7 348 28.3 334 31C320 33.7 306 36.3 292 35C278 33.7 264 28.3 250.2 26.7C236.3 25 222.7 27 208.8 26.7C195 26.3 181 23.7 167 24.3C153 25 139 29 125 28.7C111 28.3 97 23.7 83.2 22.3C69.3 21 55.7 23 41.8 24.3C28 25.7 14 26.3 7 26.7L0 27Z" fill="#f06764"></path><path d="M0 107L7 110.3C14 113.7 28 120.3 41.8 124C55.7 127.7 69.3 128.3 83.2 126.3C97 124.3 111 119.7 125 114.3C139 109 153 103 167 103.3C181 103.7 195 110.3 208.8 110.3C222.7 110.3 236.3 103.7 250.2 103.3C264 103 278 109 292 110.7C306 112.3 320 109.7 334 112.7C348 115.7 362 124.3 375.8 129.3C389.7 134.3 403.3 135.7 417.2 135C431 134.3 445 131.7 459 128C473 124.3 487 119.7 501 115.7C515 111.7 529 108.3 542.8 112.7C556.7 117 570.3 129 584.2 132C598 135 612 129 626 125.7C640 122.3 654 121.7 668 118.3C682 115 696 109 709.8 107.3C723.7 105.7 737.3 108.3 751.2 113.7C765 119 779 127 793 131.3C807 135.7 821 136.3 835 134.3C849 132.3 863 127.7 876.8 125C890.7 122.3 904.3 121.7 918.2 122.7C932 123.7 946 126.3 953 127.7L960 129L960 67L953 68.3C946 69.7 932 72.3 918.2 69.7C904.3 67 890.7 59 876.8 58C863 57 849 63 835 69.3C821 75.7 807 82.3 793 81C779 79.7 765 70.3 751.2 66C737.3 61.7 723.7 62.3 709.8 65C696 67.7 682 72.3 668 70.3C654 68.3 640 59.7 626 65.7C612 71.7 598 92.3 584.2 95.3C570.3 98.3 556.7 83.7 542.8 72.3C529 61 515 53 501 58.7C487 64.3 473 83.7 459 91.7C445 99.7 431 96.3 417.2 92.7C403.3 89 389.7 85 375.8 80.3C362 75.7 348 70.3 334 68.7C320 67 306 69 292 64.7C278 60.3 264 49.7 250.2 49C236.3 48.3 222.7 57.7 208.8 62C195 66.3 181 65.7 167 70C153 74.3 139 83.7 125 88.7C111 93.7 97 94.3 83.2 87.3C69.3 80.3 55.7 65.7 41.8 58.7C28 51.7 14 52.3 7 52.7L0 53Z" fill="#eb5554"></path><path d="M0 125L7 129C14 133 28 141 41.8 142.7C55.7 144.3 69.3 139.7 83.2 135C97 130.3 111 125.7 125 124.7C139 123.7 153 126.3 167 129C181 131.7 195 134.3 208.8 132C222.7 129.7 236.3 122.3 250.2 122.3C264 122.3 278 129.7 292 132.3C306 135 320 133 334 135C348 137 362 143 375.8 145.7C389.7 148.3 403.3 147.7 417.2 146.3C431 145 445 143 459 139C473 135 487 129 501 126.3C515 123.7 529 124.3 542.8 130C556.7 135.7 570.3 146.3 584.2 150.3C598 154.3 612 151.7 626 148.7C640 145.7 654 142.3 668 139.7C682 137 696 135 709.8 135C723.7 135 737.3 137 751.2 139.3C765 141.7 779 144.3 793 146.7C807 149 821 151 835 151C849 151 863 149 876.8 145C890.7 141 904.3 135 918.2 136.7C932 138.3 946 147.7 953 152.3L960 157L960 127L953 125.7C946 124.3 932 121.7 918.2 120.7C904.3 119.7 890.7 120.3 876.8 123C863 125.7 849 130.3 835 132.3C821 134.3 807 133.7 793 129.3C779 125 765 117 751.2 111.7C737.3 106.3 723.7 103.7 709.8 105.3C696 107 682 113 668 116.3C654 119.7 640 120.3 626 123.7C612 127 598 133 584.2 130C570.3 127 556.7 115 542.8 110.7C529 106.3 515 109.7 501 113.7C487 117.7 473 122.3 459 126C445 129.7 431 132.3 417.2 133C403.3 133.7 389.7 132.3 375.8 127.3C362 122.3 348 113.7 334 110.7C320 107.7 306 110.3 292 108.7C278 107 264 101 250.2 101.3C236.3 101.7 222.7 108.3 208.8 108.3C195 108.3 181 101.7 167 101.3C153 101 139 107 125 112.3C111 117.7 97 122.3 83.2 124.3C69.3 126.3 55.7 125.7 41.8 122C28 118.3 14 111.7 7 108.3L0 105Z" fill="#e04849"></path><path d="M0 153L7 155C14 157 28 161 41.8 163C55.7 165 69.3 165 83.2 161C97 157 111 149 125 146.3C139 143.7 153 146.3 167 147.7C181 149 195 149 208.8 149C222.7 149 236.3 149 250.2 148.3C264 147.7 278 146.3 292 146.7C306 147 320 149 334 151C348 153 362 155 375.8 160.3C389.7 165.7 403.3 174.3 417.2 175C431 175.7 445 168.3 459 160.3C473 152.3 487 143.7 501 143.3C515 143 529 151 542.8 157C556.7 163 570.3 167 584.2 169C598 171 612 171 626 168.7C640 166.3 654 161.7 668 159.7C682 157.7 696 158.3 709.8 160C723.7 161.7 737.3 164.3 751.2 164.3C765 164.3 779 161.7 793 162.3C807 163 821 167 835 167.7C849 168.3 863 165.7 876.8 161.7C890.7 157.7 904.3 152.3 918.2 154.7C932 157 946 167 953 172L960 177L960 155L953 150.3C946 145.7 932 136.3 918.2 134.7C904.3 133 890.7 139 876.8 143C863 147 849 149 835 149C821 149 807 147 793 144.7C779 142.3 765 139.7 751.2 137.3C737.3 135 723.7 133 709.8 133C696 133 682 135 668 137.7C654 140.3 640 143.7 626 146.7C612 149.7 598 152.3 584.2 148.3C570.3 144.3 556.7 133.7 542.8 128C529 122.3 515 121.7 501 124.3C487 127 473 133 459 137C445 141 431 143 417.2 144.3C403.3 145.7 389.7 146.3 375.8 143.7C362 141 348 135 334 133C320 131 306 133 292 130.3C278 127.7 264 120.3 250.2 120.3C236.3 120.3 222.7 127.7 208.8 130C195 132.3 181 129.7 167 127C153 124.3 139 121.7 125 122.7C111 123.7 97 128.3 83.2 133C69.3 137.7 55.7 142.3 41.8 140.7C28 139 14 131 7 127L0 123Z" fill="#cf4242"></path><path d="M0 177L7 179C14 181 28 185 41.8 187.3C55.7 189.7 69.3 190.3 83.2 186C97 181.7 111 172.3 125 166.3C139 160.3 153 157.7 167 157C181 156.3 195 157.7 208.8 160.3C222.7 163 236.3 167 250.2 167.7C264 168.3 278 165.7 292 163.3C306 161 320 159 334 162C348 165 362 173 375.8 178.3C389.7 183.7 403.3 186.3 417.2 185C431 183.7 445 178.3 459 173C473 167.7 487 162.3 501 161C515 159.7 529 162.3 542.8 167C556.7 171.7 570.3 178.3 584.2 182.7C598 187 612 189 626 186C640 183 654 175 668 170.7C682 166.3 696 165.7 709.8 167C723.7 168.3 737.3 171.7 751.2 172.7C765 173.7 779 172.3 793 174.7C807 177 821 183 835 186C849 189 863 189 876.8 186.7C890.7 184.3 904.3 179.7 918.2 180C932 180.3 946 185.7 953 188.3L960 191L960 175L953 170C946 165 932 155 918.2 152.7C904.3 150.3 890.7 155.7 876.8 159.7C863 163.7 849 166.3 835 165.7C821 165 807 161 793 160.3C779 159.7 765 162.3 751.2 162.3C737.3 162.3 723.7 159.7 709.8 158C696 156.3 682 155.7 668 157.7C654 159.7 640 164.3 626 166.7C612 169 598 169 584.2 167C570.3 165 556.7 161 542.8 155C529 149 515 141 501 141.3C487 141.7 473 150.3 459 158.3C445 166.3 431 173.7 417.2 173C403.3 172.3 389.7 163.7 375.8 158.3C362 153 348 151 334 149C320 147 306 145 292 144.7C278 144.3 264 145.7 250.2 146.3C236.3 147 222.7 147 208.8 147C195 147 181 147 167 145.7C153 144.3 139 141.7 125 144.3C111 147 97 155 83.2 159C69.3 163 55.7 163 41.8 161C28 159 14 155 7 153L0 151Z" fill="#be3b3b"></path><path d="M0 201L7 201C14 201 28 201 41.8 201C55.7 201 69.3 201 83.2 201C97 201 111 201 125 201C139 201 153 201 167 201C181 201 195 201 208.8 201C222.7 201 236.3 201 250.2 201C264 201 278 201 292 201C306 201 320 201 334 201C348 201 362 201 375.8 201C389.7 201 403.3 201 417.2 201C431 201 445 201 459 201C473 201 487 201 501 201C515 201 529 201 542.8 201C556.7 201 570.3 201 584.2 201C598 201 612 201 626 201C640 201 654 201 668 201C682 201 696 201 709.8 201C723.7 201 737.3 201 751.2 201C765 201 779 201 793 201C807 201 821 201 835 201C849 201 863 201 876.8 201C890.7 201 904.3 201 918.2 201C932 201 946 201 953 201L960 201L960 189L953 186.3C946 183.7 932 178.3 918.2 178C904.3 177.7 890.7 182.3 876.8 184.7C863 187 849 187 835 184C821 181 807 175 793 172.7C779 170.3 765 171.7 751.2 170.7C737.3 169.7 723.7 166.3 709.8 165C696 163.7 682 164.3 668 168.7C654 173 640 181 626 184C612 187 598 185 584.2 180.7C570.3 176.3 556.7 169.7 542.8 165C529 160.3 515 157.7 501 159C487 160.3 473 165.7 459 171C445 176.3 431 181.7 417.2 183C403.3 184.3 389.7 181.7 375.8 176.3C362 171 348 163 334 160C320 157 306 159 292 161.3C278 163.7 264 166.3 250.2 165.7C236.3 165 222.7 161 208.8 158.3C195 155.7 181 154.3 167 155C153 155.7 139 158.3 125 164.3C111 170.3 97 179.7 83.2 184C69.3 188.3 55.7 187.7 41.8 185.3C28 183 14 179 7 177L0 175Z" fill="#ae3435"></path></svg>